<?xml version="1.0" encoding="iso-8859-1"?>
<!-- Generator: Adobe Illustrator 19.0.0, SVG Export Plug-In . SVG Version: 6.00 Build 0)  -->
<svg version="1.1" id="Capa_1" xmlns="http://www.w3.org/2000/svg" xmlns:xlink="http://www.w3.org/1999/xlink" x="0px" y="0px"
	 viewBox="0 0 469.824 469.824" style="enable-background:new 0 0 469.824 469.824;" xml:space="preserve">
<g>
	<path style="fill:#4CAF50;" d="M188.864,67.36C147.819,26.336,67.499,21.579,10.667,21.579C4.779,21.579,0,26.357,0,32.245
		c0,56.853,4.757,137.173,45.781,178.219c19.264,17.152,44.437,26.133,70.208,25.067c26.581,1.045,52.565-7.893,72.875-25.067
		C219.435,179.872,225.045,103.541,188.864,67.36z"/>
	<path style="fill:#4CAF50;" d="M459.136,63.776c-56.853,0-137.173,4.757-178.219,45.781c-36.267,36.267-30.571,112.491,0,143.083
		c20.309,17.173,46.315,26.112,72.896,25.067c25.771,1.067,50.944-7.915,70.208-25.067c41.045-41.045,45.781-121.365,45.781-178.219
		C469.781,68.533,465.024,63.776,459.136,63.776z"/>
</g>
<path style="fill:#388E3C;" d="M224,448.245c-5.888,0-10.667-4.779-10.667-10.667c0-226.24-82.965-283.008-114.197-304.363
	c-3.776-2.411-7.339-5.099-10.667-8.085c-4.096-4.245-3.968-10.987,0.256-15.083c4.139-3.989,10.688-3.989,14.827,0
	c2.411,2.027,4.971,3.904,7.637,5.568c27.733,18.965,93.056,63.659,115.648,210.261c17.451-76.651,69.205-140.992,140.331-174.485
	c5.44-2.56,11.947-0.512,14.933,4.715c2.688,4.757,1.024,10.795-3.733,13.504c-0.171,0.107-0.363,0.192-0.533,0.277l-1.728,0.811
	c-116.949,54.976-141.504,175.467-141.504,266.88C234.603,443.445,229.867,448.203,224,448.245z"/>
<path d="M115.712,235.381c-28.651,0-53.973-8.981-69.909-24.939C4.736,169.397,0,89.099,0,32.245
	c0-5.888,4.779-10.667,10.667-10.667c56.853,0,137.173,4.757,178.219,45.781c36.181,36.16,30.571,112.512,0,143.083l0,0l0,0
	c-14.699,14.699-40.491,24-68.971,24.875C118.485,235.36,117.099,235.381,115.712,235.381z M21.397,42.976
	c0.619,51.968,6.357,119.275,39.488,152.405c12.587,12.565,33.835,19.221,58.389,18.645c22.485-0.683,43.904-8,54.528-18.645l0,0
	c22.805-22.805,26.709-86.208,0-112.917C140.672,49.333,73.365,43.595,21.397,42.976z"/>
<path d="M354.048,277.6c-1.365,0-2.752-0.021-4.139-0.064c-28.48-0.832-54.272-10.155-68.971-24.896
	c-30.571-30.592-36.16-106.923,0-143.083c41.067-41.045,121.365-45.781,178.219-45.781c5.888,0,10.667,4.779,10.667,10.667
	c0,56.853-4.757,137.173-45.781,178.219C408.043,268.619,382.72,277.6,354.048,277.6z M448.405,85.173
	C396.437,85.792,329.131,91.531,296,124.661c-26.709,26.709-22.784,90.112,0,112.917l0,0c10.645,10.667,32.043,17.963,54.549,18.645
	c24.384,0.96,45.781-6.08,58.368-18.667C442.027,204.469,447.787,137.141,448.405,85.173z"/>
<path d="M224,448.245c-5.888,0-10.667-4.779-10.667-10.667c0-226.24-82.965-283.008-114.197-304.363
	c-4.907-3.371-8.576-5.995-10.667-8.085c-4.16-4.16-4.16-10.923,0-15.083s10.923-4.16,15.083,0c1.472,1.472,4.16,3.179,7.616,5.568
	c27.712,18.944,93.077,63.659,115.648,210.261c18.261-68.949,58.475-136.021,140.267-174.464c5.269-2.517,12.523-0.619,15.04,4.693
	c2.496,5.333,1.088,11.264-4.224,13.781l-1.728,0.832C259.221,225.675,234.667,346.187,234.667,437.6
	C234.667,443.467,229.888,448.245,224,448.245z"/>
<g>
</g>
<g>
</g>
<g>
</g>
<g>
</g>
<g>
</g>
<g>
</g>
<g>
</g>
<g>
</g>
<g>
</g>
<g>
</g>
<g>
</g>
<g>
</g>
<g>
</g>
<g>
</g>
<g>
</g>
</svg>
